<svg width="36" height="36" viewBox="0 0 36 36" fill="none" xmlns="http://www.w3.org/2000/svg">
<path d="M29.85 18.9901C29.6095 18.7164 29.4769 18.3644 29.4769 18.0001C29.4769 17.6357 29.6095 17.2838 29.85 17.0101L31.77 14.8501C31.9815 14.6141 32.1129 14.3171 32.1453 14.0018C32.1776 13.6866 32.1092 13.3691 31.95 13.0951L28.95 7.90509C28.7923 7.63137 28.5523 7.4144 28.2641 7.28512C27.9759 7.15583 27.6542 7.12082 27.345 7.18509L24.525 7.75509C24.1661 7.82923 23.7926 7.76947 23.4748 7.58709C23.157 7.4047 22.917 7.11231 22.8 6.76509L21.885 4.02009C21.7843 3.72216 21.5926 3.46338 21.3369 3.28035C21.0812 3.09732 20.7744 2.99928 20.46 3.00009H14.46C14.1329 2.98301 13.8092 3.07348 13.5383 3.25766C13.2675 3.44184 13.0643 3.70962 12.96 4.02009L12.12 6.76509C12.003 7.11231 11.7629 7.4047 11.4451 7.58709C11.1273 7.76947 10.7538 7.82923 10.395 7.75509L7.49997 7.18509C7.20679 7.14366 6.90792 7.18992 6.64099 7.31805C6.37406 7.44617 6.15102 7.65043 5.99997 7.90509L2.99997 13.0951C2.83671 13.3661 2.7633 13.6817 2.79024 13.9969C2.81718 14.3121 2.94309 14.6107 3.14997 14.8501L5.05497 17.0101C5.29545 17.2838 5.42807 17.6357 5.42807 18.0001C5.42807 18.3644 5.29545 18.7164 5.05497 18.9901L3.14997 21.1501C2.94309 21.3894 2.81718 21.688 2.79024 22.0033C2.7633 22.3185 2.83671 22.6341 2.99997 22.9051L5.99997 28.0951C6.15761 28.3688 6.39764 28.5858 6.68584 28.7151C6.97404 28.8443 7.2957 28.8793 7.60497 28.8151L10.425 28.2451C10.7838 28.1709 11.1573 28.2307 11.4751 28.4131C11.7929 28.5955 12.033 28.8879 12.15 29.2351L13.065 31.9801C13.1693 32.2906 13.3725 32.5583 13.6433 32.7425C13.9142 32.9267 14.2379 33.0172 14.565 33.0001H20.565C20.8794 33.0009 21.1862 32.9029 21.4419 32.7198C21.6976 32.5368 21.8893 32.278 21.99 31.9801L22.905 29.2351C23.022 28.8879 23.262 28.5955 23.5798 28.4131C23.8976 28.2307 24.2711 28.1709 24.63 28.2451L27.45 28.8151C27.7592 28.8793 28.0809 28.8443 28.3691 28.7151C28.6573 28.5858 28.8973 28.3688 29.055 28.0951L32.055 22.9051C32.2142 22.6311 32.2826 22.3136 32.2503 21.9983C32.2179 21.683 32.0865 21.3861 31.875 21.1501L29.85 18.9901ZM27.615 21.0001L28.815 22.3501L26.895 25.6801L25.125 25.3201C24.0446 25.0993 22.9208 25.2828 21.9669 25.8358C21.0129 26.3888 20.2952 27.2728 19.95 28.3201L19.38 30.0001H15.54L15 28.2901C14.6547 27.2428 13.937 26.3588 12.9831 25.8058C12.0291 25.2528 10.9053 25.0693 9.82497 25.2901L8.05497 25.6501L6.10497 22.3351L7.30497 20.9851C8.0429 20.1601 8.45086 19.092 8.45086 17.9851C8.45086 16.8782 8.0429 15.8101 7.30497 14.9851L6.10497 13.6351L8.02497 10.3351L9.79497 10.6951C10.8753 10.9159 11.9991 10.7324 12.9531 10.1794C13.907 9.62636 14.6247 8.74233 14.97 7.69509L15.54 6.00009H19.38L19.95 7.71009C20.2952 8.75732 21.0129 9.64136 21.9669 10.1944C22.9208 10.7474 24.0446 10.9309 25.125 10.7101L26.895 10.3501L28.815 13.6801L27.615 15.0301C26.8853 15.8532 26.4824 16.9151 26.4824 18.0151C26.4824 19.1151 26.8853 20.1769 27.615 21.0001ZM17.46 12.0001C16.2733 12.0001 15.1132 12.352 14.1265 13.0113C13.1398 13.6706 12.3708 14.6076 11.9167 15.704C11.4626 16.8003 11.3437 18.0067 11.5753 19.1706C11.8068 20.3345 12.3782 21.4036 13.2173 22.2427C14.0564 23.0818 15.1255 23.6533 16.2894 23.8848C17.4533 24.1163 18.6597 23.9975 19.7561 23.5434C20.8524 23.0892 21.7895 22.3202 22.4488 21.3335C23.1081 20.3468 23.46 19.1868 23.46 18.0001C23.46 16.4088 22.8278 14.8827 21.7026 13.7574C20.5774 12.6322 19.0513 12.0001 17.46 12.0001ZM17.46 21.0001C16.8666 21.0001 16.2866 20.8241 15.7933 20.4945C15.2999 20.1649 14.9154 19.6963 14.6883 19.1481C14.4613 18.6 14.4019 17.9968 14.5176 17.4148C14.6334 16.8329 14.9191 16.2983 15.3386 15.8788C15.7582 15.4592 16.2928 15.1735 16.8747 15.0577C17.4566 14.942 18.0598 15.0014 18.608 15.2284C19.1562 15.4555 19.6247 15.84 19.9544 16.3334C20.284 16.8267 20.46 17.4067 20.46 18.0001C20.46 18.7957 20.1439 19.5588 19.5813 20.1214C19.0187 20.684 18.2556 21.0001 17.46 21.0001Z" fill="black"/>
</svg>
