<svg width="36" height="36" viewBox="0 0 36 36" fill="none" xmlns="http://www.w3.org/2000/svg">
<g clip-path="url(#clip0_90_6)">
<path d="M28.5 10.5C28.5 10.5 21 21 9.75 21M9.75 21C6.75 21 1.5 22.5 1.5 28.5V34.5H18V28.5C18 24.75 22.5 27 28.5 16.5L26.25 14.25M9.75 21C11.1424 21 12.4777 20.4469 13.4623 19.4623C14.4469 18.4777 15 17.1424 15 15.75C15 14.3576 14.4469 13.0223 13.4623 12.0377C12.4777 11.0531 11.1424 10.5 9.75 10.5C8.35761 10.5 7.02226 11.0531 6.03769 12.0377C5.05312 13.0223 4.5 14.3576 4.5 15.75C4.5 17.1424 5.05312 18.4777 6.03769 19.4623C7.02226 20.4469 8.35761 21 9.75 21ZM4.5 7.5V3H34.5V24H30M16.5 1.5H22.5V4.5H16.5V1.5Z" stroke="black" stroke-width="2"/>
</g>
<defs>
<clipPath id="clip0_90_6">
<rect width="36" height="36" fill="white"/>
</clipPath>
</defs>
</svg>
