<svg width="36" height="36" viewBox="0 0 36 36" fill="none" xmlns="http://www.w3.org/2000/svg">
<path d="M23.625 21.75C23.3266 21.75 23.0405 21.8685 22.8295 22.0795C22.6185 22.2905 22.5 22.5766 22.5 22.875C22.5 23.1734 22.6185 23.4595 22.8295 23.6705C23.0405 23.8815 23.3266 24 23.625 24H27.375C27.6734 24 27.9595 23.8815 28.1705 23.6705C28.3815 23.4595 28.5 23.1734 28.5 22.875C28.5 22.5766 28.3815 22.2905 28.1705 22.0795C27.9595 21.8685 27.6734 21.75 27.375 21.75H23.625ZM3 12.375C3 11.0821 3.51361 9.84209 4.42785 8.92785C5.34209 8.01361 6.58207 7.5 7.875 7.5H28.125C28.7652 7.5 29.3991 7.6261 29.9906 7.87109C30.582 8.11608 31.1195 8.47517 31.5721 8.92785C32.0248 9.38054 32.3839 9.91796 32.6289 10.5094C32.8739 11.1009 33 11.7348 33 12.375V23.625C33 24.2652 32.8739 24.8991 32.6289 25.4906C32.3839 26.082 32.0248 26.6195 31.5721 27.0721C31.1195 27.5248 30.582 27.8839 29.9906 28.1289C29.3991 28.3739 28.7652 28.5 28.125 28.5H7.875C6.58207 28.5 5.34209 27.9864 4.42785 27.0721C3.51361 26.1579 3 24.9179 3 23.625V12.375ZM30.75 14.25V12.375C30.75 11.6788 30.4734 11.0111 29.9812 10.5188C29.4889 10.0266 28.8212 9.75 28.125 9.75H7.875C7.17881 9.75 6.51113 10.0266 6.01884 10.5188C5.52656 11.0111 5.25 11.6788 5.25 12.375V14.25H30.75ZM5.25 16.5V23.625C5.25 25.074 6.426 26.25 7.875 26.25H28.125C28.8212 26.25 29.4889 25.9734 29.9812 25.4812C30.4734 24.9889 30.75 24.3212 30.75 23.625V16.5H5.25Z" fill="black"/>
</svg>
