<svg width="36" height="36" viewBox="0 0 36 36" fill="none" xmlns="http://www.w3.org/2000/svg">
<path d="M7.71452 21C6.58901 19.1568 5.99561 17.0381 6.00002 14.8785C6.00002 8.3175 11.373 3 18 3C24.627 3 30 8.3175 30 14.8785C30.0044 17.0381 29.411 19.1568 28.2855 21M22.5 28.5L22.305 29.4705C22.095 30.531 21.9885 31.0605 21.75 31.4805C21.3825 32.1278 20.7875 32.6154 20.0805 32.8485C19.623 33 19.08 33 18 33C16.92 33 16.377 33 15.9195 32.85C15.2123 32.6165 14.6172 32.1284 14.25 31.4805C14.0115 31.0605 13.905 30.531 13.695 29.4705L13.5 28.5M11.0745 25.647C10.9365 25.233 10.8675 25.0245 10.875 24.8565C10.8835 24.6828 10.9421 24.5153 11.0438 24.3742C11.1455 24.2331 11.2859 24.1245 11.448 24.0615C11.604 24 11.823 24 12.258 24H23.742C24.1785 24 24.396 24 24.552 24.06C24.7144 24.1231 24.8549 24.2319 24.9566 24.3733C25.0583 24.5147 25.1168 24.6825 25.125 24.8565C25.1325 25.0245 25.0635 25.2315 24.9255 25.647C24.6705 26.4135 24.543 26.7975 24.3465 27.108C23.9355 27.7569 23.2913 28.2235 22.5465 28.4115C22.1895 28.5 21.7875 28.5 20.982 28.5H15.018C14.2125 28.5 13.809 28.5 13.4535 28.41C12.709 28.2223 12.0648 27.7563 11.6535 27.108C11.457 26.7975 11.3295 26.4135 11.0745 25.647Z" stroke="black" stroke-width="1.5" stroke-linecap="round" stroke-linejoin="round"/>
<path d="M12.375 14.625L15.75 18V24M23.625 14.625L20.25 18V24M12.375 15.75C12.6734 15.75 12.9595 15.6315 13.1705 15.4205C13.3815 15.2095 13.5 14.9234 13.5 14.625C13.5 14.3266 13.3815 14.0405 13.1705 13.8295C12.9595 13.6185 12.6734 13.5 12.375 13.5C12.0766 13.5 11.7905 13.6185 11.5795 13.8295C11.3685 14.0405 11.25 14.3266 11.25 14.625C11.25 14.9234 11.3685 15.2095 11.5795 15.4205C11.7905 15.6315 12.0766 15.75 12.375 15.75ZM23.625 15.75C23.3266 15.75 23.0405 15.6315 22.8295 15.4205C22.6185 15.2095 22.5 14.9234 22.5 14.625C22.5 14.3266 22.6185 14.0405 22.8295 13.8295C23.0405 13.6185 23.3266 13.5 23.625 13.5C23.9234 13.5 24.2095 13.6185 24.4205 13.8295C24.6315 14.0405 24.75 14.3266 24.75 14.625C24.75 14.9234 24.6315 15.2095 24.4205 15.4205C24.2095 15.6315 23.9234 15.75 23.625 15.75Z" stroke="black" stroke-width="1.5" stroke-linecap="round" stroke-linejoin="round"/>
</svg>
